#!OML:ASF F:\VICON\USERDATA\INSTALL\Justin_Nancy\Justin_Nancy.ASF
:FULLY-SPECIFIED
:DEGREES
83
root 1.08769 17.0835 -7.81707 0.213422 -0.6999 8.06379
lowerback 5.91303 -1.20994 -8.31677
upperback 0.287081 -2.14441 0.826851
thorax -2.68711 -0.962879 5.70946
lowerneck -15.4715 -1.93801 -9.43482
upperneck 23.5508 -0.916834 2.71223
head 10.1451 -0.955541 2.42082
rclavicle -1.33683e-014 2.3059e-014
rhumerus -33.7816 -8.51402 -79.0358
rradius 30.7259
rwrist 6.9225
rhand -12.6047 12.0935
rfingers 7.12502
rthumb 13.4742 -17.4507
lclavicle -1.33683e-014 2.3059e-014
lhumerus -28.5235 0.0371753 85.6447
lradius 31.9141
lwrist -6.578
lhand -12.2841 26.56
lfingers 7.12502
lthumb 13.7832 56.0834
rfemur -35.8001 0.75178 11.5704
rtibia 38.1127
rfoot -5.75011 -11.694
rtoes -4.83293
lfemur 1.5834 -0.206143 -34.1637
ltibia 25.1824
lfoot -20.1711 5.04984
ltoes -2.43979
84
root 1.07008 17.0739 -7.57334 0.398064 -0.424463 8.09302
lowerback 5.66093 -1.36956 -8.51952
upperback 0.428386 -2.33896 0.890576
thorax -2.35599 -1.07742 5.89125
lowerneck -15.6846 -1.94833 -9.31736
upperneck 23.3228 -0.910823 2.59833
head 10.102 -0.948682 2.35826
rclavicle 2.95195e-014 2.38542e-015
rhumerus -33.8661 -8.51127 -79.0914
rradius 30.471
rwrist 7.15068
rhand -12.4812 12.0373
rfingers 7.12502
rthumb 13.5933 -17.4989
lclavicle 2.95195e-014 2.38542e-015
lhumerus -27.9938 -0.940844 85.6761
lradius 33.3095
lwrist -5.81552
lhand -12.6225 26.3659
lfingers 7.12502
lthumb 13.457 55.9112
rfemur -35.6751 1.05905 11.2749
rtibia 34.606
rfoot -5.23448 -12.9415
rtoes -3.57846
lfemur 2.92486 0.0367023 -34.0698
ltibia 24.0369
lfoot -19.9637 4.7466
ltoes -1.03958
85
root 1.05205 17.064 -7.32736 0.575496 -0.113185 8.15502
lowerback 5.529 -1.55131 -8.77368
upperback 0.491495 -2.57916 0.984431
thorax -2.161 -1.20608 6.14137
lowerneck -15.8183 -1.92621 -9.3034
upperneck 23.1164 -0.848594 2.51563
head 10.0491 -0.922451 2.33196
rclavicle 1.95803e-014 -1.19271e-014
rhumerus -34.0792 -8.52668 -79.0337
rradius 30.2153
rwrist 7.41528
rhand -12.4796 12.1362
rfingers 7.12502
rthumb 13.5948 -17.3999
lclavicle 1.95803e-014 -1.19271e-014
lhumerus -27.649 -1.72196 85.6753
lradius 34.7765
lwrist -5.12409
lhand -12.7101 26.6502
lfingers 7.12502
lthumb 13.3726 56.2011
rfemur -35.5015 1.37207 10.9074
rtibia 31.146
rfoot -4.90102 -13.8812
rtoes -3.78727
lfemur 4.27673 0.0753637 -33.9717
ltibia 22.8708
lfoot -19.3702 4.29143
ltoes 2.64033
86
root 1.03948 17.0506 -7.0828 0.826035 0.387841 8.39182
lowerback 5.58916 -1.75921 -9.09098
upperback 0.336085 -2.88754 1.02234
thorax -2.2878 -1.34508 6.38548
lowerneck -15.9642 -1.86671 -9.29701
upperneck 23.2512 -0.7312 2.44107
head 10.1179 -0.879708 2.32162
rclavicle -8.84592e-015 -3.33958e-014
rhumerus -34.8635 -8.2932 -78.9008
rradius 30.3502
rwrist 7.34988
rhand -12.3836 11.806
rfingers 7.12502
rthumb 13.6873 -17.7239
lclavicle -8.84592e-015 -3.33958e-014
lhumerus -27.5956 -2.6042 85.6894
lradius 36.1902
lwrist -4.5716
lhand -13.0559 26.9632
lfingers 7.12502
lthumb 13.0393 56.5356
rfemur -35.3193 1.4078 10.3194
rtibia 27.7013
rfoot -5.16516 -14.527
rtoes -2.5826
lfemur 5.5629 0.106121 -33.9884
ltibia 21.6833
lfoot -18.9287 3.66787
ltoes 3.48987
87
root 1.02706 17.032 -6.83215 1.09395 1.08643 8.46409
lowerback 5.37544 -2.04825 -9.15692
upperback 0.320846 -3.2555 1.03699
thorax -2.11436 -1.53635 6.44735
lowerneck -16.2586 -1.85178 -9.26833
upperneck 23.4749 -0.684382 2.44012
head 10.2514 -0.860905 2.32576
rclavicle 3.03147e-014 8.74653e-015
rhumerus -35.3301 -8.63291 -78.7076
rradius 30.0023
rwrist 8.11143
rhand -12.5016 12.4591
rfingers 7.12502
rthumb 13.5736 -17.0785
lclavicle 3.03147e-014 8.74653e-015
lhumerus -27.1846 -3.42925 85.5717
lradius 37.3074
lwrist -4.24086
lhand -13.7185 25.8771
lfingers 7.12502
lthumb 12.4005 55.4892
rfemur -35.013 1.38444 9.84548
rtibia 24.3271
rfoot -5.56192 -15.163
rtoes -2.35781
lfemur 6.86956 -0.109356 -33.7764
ltibia 20.5284
lfoot -19.0382 2.69382
ltoes 3.02142
88
root 1.00847 17.011 -6.58322 1.29782 1.78741 8.61871
lowerback 5.16628 -2.29573 -9.4137
upperback 0.377761 -3.57554 1.07144
thorax -1.86258 -1.70907 6.63008
lowerneck -16.3299 -1.86729 -9.30154
upperneck 23.4259 -0.688506 2.43738
head 10.248 -0.864435 2.3291
rclavicle -1.13307e-014 -8.74653e-015
rhumerus -35.5445 -9.35666 -78.3036
rradius 29.2468
rwrist 9.22109
rhand -12.7521 13.3553
rfingers 7.12502
rthumb 13.3321 -16.1982
lclavicle -1.13307e-014 -8.74653e-015
lhumerus -26.6189 -4.05702 85.4536
lradius 38.3315
lwrist -3.96664
lhand -14.6468 25.4023
lfingers 7.12502
lthumb 11.5054 55.0666
rfemur -34.5938 1.4749 9.24465
rtibia 21.0871
rfoot -5.88685 -15.7832
rtoes -4.17222
lfemur 8.22184 -0.294661 -33.5869
ltibia 19.4032
lfoot -19.5066 1.30762
ltoes 0.426326
89
root 0.989871 16.9995 -6.33596 1.49846 2.34384 8.61889
lowerback 5.18523 -2.50207 -9.54957
upperback 0.227441 -3.86543 1.15663
thorax -1.96314 -1.84173 6.81576
lowerneck -15.8089 -1.87241 -9.24993
upperneck 23.0806 -0.727488 2.2728
head 10.0272 -0.889505 2.2522
rclavicle -2.51463e-014 -8.74653e-015
rhumerus -36.1966 -9.68166 -78.0016
rradius 28.9353
rwrist 9.70777
rhand -12.7359 12.4495
rfingers 7.12502
rthumb 13.3477 -17.103
lclavicle -2.51463e-014 -8.74653e-015
lhumerus -26.3964 -4.49586 85.2794
lradius 39.3156
lwrist -3.76965
lhand -14.6843 25.6504
lfingers 7.12502
lthumb 11.4693 55.3167
rfemur -34.0473 1.82848 8.74088
rtibia 17.9703
rfoot -6.33733 -16.2052
rtoes -5.21959
lfemur 9.4478 -0.410214 -33.2293
ltibia 18.4036
lfoot -19.7265 0.0208628
ltoes -3.16424
90
root 0.966446 16.9883 -6.08379 1.65223 2.8594 8.53949
lowerback 5.13033 -2.64027 -9.63299
upperback 0.197588 -4.04832 1.23411
thorax -1.9181 -1.93364 6.94989
lowerneck -15.7651 -1.95816 -9.12938
upperneck 22.9248 -0.864168 2.18678
head 9.9707 -0.947905 2.18179
rclavicle -5.66536e-015 1.27222e-014
rhumerus -36.8154 -10.0004 -77.8054
rradius 28.9953
rwrist 9.77492
rhand -12.8242 11.4869
rfingers 7.12502
rthumb 13.2626 -18.0711
lclavicle -5.66536e-015 1.27222e-014
lhumerus -25.9699 -5.08562 85.124
lradius 40.1597
lwrist -3.55822
lhand -14.8909 25.8527
lfingers 7.12502
lthumb 11.27 55.5299
rfemur -33.4143 2.76436 8.09196
rtibia 15.1543
rfoot -6.44455 -16.9454
rtoes -5.60014
lfemur 10.5934 -0.597381 -32.7944
ltibia 17.5399
lfoot -19.3572 -1.09718
ltoes -4.72458
91
root 0.943021 16.9705 -5.8272 1.64768 3.18933 8.32209
lowerback 5.04199 -2.76187 -9.60876
upperback 0.255917 -4.19395 1.37736
thorax -1.77031 -2.01699 7.08519
lowerneck -15.9156 -1.928 -9.10306
upperneck 22.9752 -0.817737 2.2081
head 10.0138 -0.92253 2.19158
rclavicle 3.37934e-014 1.66979e-014
rhumerus -37.2588 -10.4718 -77.495
rradius 28.8497
rwrist 10.2912
rhand -12.6273 11.1918
rfingers 7.12502
rthumb 13.4525 -18.3538
lclavicle 3.37934e-014 1.66979e-014
lhumerus -25.6818 -5.36065 84.973
lradius 41.033
lwrist -3.47836
lhand -15.4507 25.3965
lfingers 7.12502
lthumb 10.73 55.1024
rfemur -32.6184 3.71651 7.70851
rtibia 12.6919
rfoot -6.65152 -17.2937
rtoes -5.36669
lfemur 11.7996 -0.730976 -32.269
ltibia 16.9178
lfoot -18.9701 -1.91535
ltoes -6.49992
92
root 0.923622 16.9512 -5.57505 1.65793 3.44186 8.38655
lowerback 5.05304 -2.85412 -9.8312
upperback 0.217204 -4.33145 1.42818
thorax -1.77057 -2.08251 7.27189
lowerneck -15.9327 -1.85037 -9.0101
upperneck 23.1444 -0.712727 2.13545
head 10.0704 -0.878982 2.16624
rclavicle 2.80286e-014 -1.66979e-014
rhumerus -37.9489 -11.0689 -77.0591
rradius 28.834
rwrist 10.9633
rhand -14.5619 17.4277
rfingers 7.12502
rthumb 11.5873 -12.232
lclavicle 2.80286e-014 -1.66979e-014
lhumerus -25.499 -5.33474 84.7821
lradius 41.7278
lwrist -3.58859
lhand -16.0807 24.4903
lfingers 7.12502
lthumb 10.1223 54.2268
rfemur -31.9911 3.84754 7.50638
rtibia 10.9064
rfoot -6.58317 -16.6657
rtoes -6.31391
lfemur 12.9259 -0.680833 -32.0317
ltibia 16.4775
lfoot -18.6175 -2.66735
ltoes -10.0464
93
root 0.902171 16.9289 -5.32345 1.63066 3.76888 8.43683
lowerback 5.13036 -2.90824 -10.0707
upperback 0.206819 -4.42448 1.5069
thorax -1.78241 -2.12609 7.49995
lowerneck -15.7272 -1.88522 -9.14518
upperneck 23.0888 -0.765552 2.20558
head 10.0161 -0.906058 2.20607
rclavicle 1.98785e-015 3.18055e-014
rhumerus -38.6392 -11.6883 -76.5442
rradius 28.7675
rwrist 11.2864
rhand -15.0086 18.3187
rfingers 7.12502
rthumb 11.1564 -11.3647
lclavicle 1.98785e-015 3.18055e-014
lhumerus -25.1709 -5.32839 84.6538
lradius 42.3157
lwrist -3.45803
lhand -16.136 23.8672
lfingers 7.12502
lthumb 10.069 53.6064
rfemur -31.5576 3.62205 7.60989
rtibia 10.072
rfoot -6.45306 -15.7305
rtoes -8.00777
lfemur 14.0385 -0.947044 -31.8385
ltibia 16.2672
lfoot -18.0612 -3.3578
ltoes -11.7568
94
root 0.879519 16.9134 -5.06628 1.47343 4.02752 8.41711
lowerback 5.27389 -2.92607 -10.2063
upperback 0.279913 -4.46745 1.54325
thorax -1.76413 -2.15057 7.62384
lowerneck -15.5738 -2.00063 -9.36285
upperneck 22.863 -0.956542 2.4791
head 9.92015 -0.97591 2.31158
rclavicle 1.88845e-015 3.97569e-015
rhumerus -39.179 -12.5104 -76.0469
rradius 28.4151
rwrist 11.3983
rhand -14.3699 15.675
rfingers 7.12502
rthumb 11.7724 -13.9741
lclavicle 1.88845e-015 3.97569e-015
lhumerus -24.7508 -5.43359 84.4977
lradius 42.8668
lwrist -2.97083
lhand -16.0502 23.877
lfingers 7.12502
lthumb 10.1517 53.6121
rfemur -31.3706 2.95521 8.12266
rtibia 10.4597
rfoot -6.46056 -14.076
rtoes -9.4224
lfemur 15.1707 -1.28519 -31.6403
ltibia 16.1973
lfoot -17.3956 -3.8164
ltoes -14.7933
95
root 0.856022 16.9107 -4.80367 1.21135 4.37468 8.13381
lowerback 5.49957 -3.01596 -10.106
upperback 0.37925 -4.59782 1.68313
thorax -1.7553 -2.22131 7.73262
lowerneck -15.7867 -2.05517 -9.48714
upperneck 22.8854 -1.00882 2.6088
head 9.97323 -0.995608 2.3714
rclavicle 1.44119e-014 1.59028e-014
rhumerus -39.6304 -13.0858 -75.5788
rradius 28.0056
rwrist 11.4951
rhand -14.1024 13.7927
rfingers 7.12502
rthumb 12.0304 -15.8416
lclavicle 1.44119e-014 1.59028e-014
lhumerus -24.224 -5.28689 84.3422
lradius 43.1602
lwrist -2.58854
lhand -16.3335 24.9192
lfingers 7.12502
lthumb 9.87839 54.6674
rfemur -31.2954 2.20107 8.99955
rtibia 11.7185
rfoot -6.43375 -12.3802
rtoes -10.9493
lfemur 16.2212 -1.90251 -31.2258
ltibia 16.3457
lfoot -16.4984 -4.26605
ltoes -17.6564
96
root 0.833546 16.9097 -4.52963 0.957554 4.87985 7.86793
lowerback 5.58487 -3.16714 -9.92443
upperback 0.503942 -4.7901 1.74175
thorax -1.64171 -2.33053 7.69945
lowerneck -16.1747 -2.02197 -9.29565
upperneck 23.2015 -0.953543 2.54344
head 10.1545 -0.967767 2.3274
rclavicle -1.47101e-014 3.02153e-014
rhumerus -40.2853 -13.5974 -75.2207
rradius 27.929
rwrist 11.5362
rhand -14.0813 13.5261
rfingers 7.12502
rthumb 12.0507 -16.107
lclavicle -1.47101e-014 3.02153e-014
lhumerus -23.9346 -5.01009 84.0532
lradius 43.6099
lwrist -2.58189
lhand -16.5283 25.2862
lfingers 7.12502
lthumb 9.69048 55.0433
rfemur -31.2395 1.20305 9.95929
rtibia 13.5107
rfoot -6.48334 -10.8599
rtoes -13.0153
lfemur 17.1796 -2.57277 -30.7974
ltibia 16.7178
lfoot -15.5702 -4.78093
ltoes -17.9855
97
root 0.81585 16.9055 -4.25688 0.860103 4.90622 7.66
lowerback 5.55795 -3.16288 -9.73959
upperback 0.439777 -4.77281 1.75794
thorax -1.71133 -2.31656 7.61257
lowerneck -16.1351 -1.99847 -9.17031
upperneck 23.4641 -0.953168 2.52147
head 10.2402 -0.966208 2.30216
rclavicle -3.18055e-015 -4.37326e-014
rhumerus -41.167 -14.1254 -74.8021
rradius 27.7646
rwrist 11.3928
rhand -14.1077 13.9264
rfingers 7.12502
rthumb 12.0252 -15.7081
lclavicle -3.18055e-015 -4.37326e-014
lhumerus -24.1537 -4.83974 83.8113
lradius 44.2594
lwrist -2.40946
lhand -16.5402 25.2282
lfingers 7.12502
lthumb 9.67895 54.9858
rfemur -31.5068 0.324962 10.9993
rtibia 15.5519
rfoot -6.21109 -9.17506
rtoes -15.542
lfemur 17.8001 -3.00782 -30.5676
ltibia 17.3253
lfoot -14.4574 -5.06735
ltoes -18.1185
